<svg xmlns="http://www.w3.org/2000/svg" width="720" height="420" viewBox="0 0 720 420" font-family="-apple-system, BlinkMacSystemFont, 'Segoe UI', 'Noto Sans KR', 'Apple SD Gothic Neo', 'Malgun Gothic', sans-serif">
  <rect width="720" height="420" fill="#fbfbf9"/>
  <text x="20.0" y="30.0" font-size="16" fill="#24292f" text-anchor="start" font-weight="600">n이 커질 때 걸린 시간 — 도로망</text>
  <text x="20.0" y="50.0" font-size="11.5" fill="#6e7781" text-anchor="start" font-weight="400">로그-로그 · x = 칸 수(n²) · 기울기 1이면 칸 수에 비례</text>
  <line x1="78.0" y1="362.0" x2="696.0" y2="362.0" stroke="#dfe1e4" stroke-width="1" stroke-dasharray="none"/>
  <text x="68.0" y="366.0" font-size="10.5" fill="#6e7781" text-anchor="end" font-weight="400">0.1</text>
  <line x1="78.0" y1="306.8" x2="696.0" y2="306.8" stroke="#dfe1e4" stroke-width="1" stroke-dasharray="none"/>
  <text x="68.0" y="310.8" font-size="10.5" fill="#6e7781" text-anchor="end" font-weight="400">1</text>
  <line x1="78.0" y1="251.6" x2="696.0" y2="251.6" stroke="#dfe1e4" stroke-width="1" stroke-dasharray="none"/>
  <text x="68.0" y="255.6" font-size="10.5" fill="#6e7781" text-anchor="end" font-weight="400">10</text>
  <line x1="78.0" y1="196.4" x2="696.0" y2="196.4" stroke="#dfe1e4" stroke-width="1" stroke-dasharray="none"/>
  <text x="68.0" y="200.4" font-size="10.5" fill="#6e7781" text-anchor="end" font-weight="400">100</text>
  <line x1="78.0" y1="141.2" x2="696.0" y2="141.2" stroke="#dfe1e4" stroke-width="1" stroke-dasharray="none"/>
  <text x="68.0" y="145.2" font-size="10.5" fill="#6e7781" text-anchor="end" font-weight="400">1K</text>
  <line x1="78.0" y1="86.0" x2="696.0" y2="86.0" stroke="#dfe1e4" stroke-width="1" stroke-dasharray="none"/>
  <text x="68.0" y="90.0" font-size="10.5" fill="#6e7781" text-anchor="end" font-weight="400">10K</text>
  <line x1="78.0" y1="86.0" x2="78.0" y2="362.0" stroke="#dfe1e4" stroke-width="1" stroke-dasharray="2 4"/>
  <text x="78.0" y="380.0" font-size="10.5" fill="#6e7781" text-anchor="middle" font-weight="400">4.2K</text>
  <line x1="200.8" y1="86.0" x2="200.8" y2="362.0" stroke="#dfe1e4" stroke-width="1" stroke-dasharray="2 4"/>
  <text x="200.8" y="380.0" font-size="10.5" fill="#6e7781" text-anchor="middle" font-weight="400">17K</text>
  <line x1="324.2" y1="86.0" x2="324.2" y2="362.0" stroke="#dfe1e4" stroke-width="1" stroke-dasharray="2 4"/>
  <text x="324.2" y="380.0" font-size="10.5" fill="#6e7781" text-anchor="middle" font-weight="400">66K</text>
  <line x1="448.0" y1="86.0" x2="448.0" y2="362.0" stroke="#dfe1e4" stroke-width="1" stroke-dasharray="2 4"/>
  <text x="448.0" y="380.0" font-size="10.5" fill="#6e7781" text-anchor="middle" font-weight="400">263K</text>
  <line x1="571.9" y1="86.0" x2="571.9" y2="362.0" stroke="#dfe1e4" stroke-width="1" stroke-dasharray="2 4"/>
  <text x="571.9" y="380.0" font-size="10.5" fill="#6e7781" text-anchor="middle" font-weight="400">1.1M</text>
  <line x1="696.0" y1="86.0" x2="696.0" y2="362.0" stroke="#dfe1e4" stroke-width="1" stroke-dasharray="2 4"/>
  <text x="696.0" y="380.0" font-size="10.5" fill="#6e7781" text-anchor="middle" font-weight="400">4.2M</text>
  <line x1="78.0" y1="362.0" x2="696.0" y2="362.0" stroke="#6e7781" stroke-width="1" stroke-dasharray="none"/>
  <line x1="78.0" y1="86.0" x2="78.0" y2="362.0" stroke="#6e7781" stroke-width="1" stroke-dasharray="none"/>
  <text x="387.0" y="406.0" font-size="11.5" fill="#6e7781" text-anchor="middle" font-weight="400">칸 수 n²</text>
  <text x="20.0" y="72.0" font-size="11.5" fill="#6e7781" text-anchor="start" font-weight="400">시간 (ms)</text>
  <polyline points="78.0,359.9 200.8,327.1 324.2,291.5 448.0,250.5 571.9,207.7 696.0,165.3" fill="none" stroke="#0072B2" stroke-width="2.2" stroke-dasharray="none" stroke-linejoin="round" stroke-linecap="round"/>
  <circle cx="78.0" cy="359.9" r="3.4" fill="#0072B2"/>
  <circle cx="200.8" cy="327.1" r="3.4" fill="#0072B2"/>
  <circle cx="324.2" cy="291.5" r="3.4" fill="#0072B2"/>
  <circle cx="448.0" cy="250.5" r="3.4" fill="#0072B2"/>
  <circle cx="571.9" cy="207.7" r="3.4" fill="#0072B2"/>
  <circle cx="696.0" cy="165.3" r="3.4" fill="#0072B2"/>
  <text x="690.0" y="154.3" font-size="11" fill="#0072B2" text-anchor="end" font-weight="600">기울기 1.18</text>
  <polyline points="78.0,316.3 200.8,283.0 324.2,247.0 448.0,211.3 571.9,174.5 696.0,134.8" fill="none" stroke="#E69F00" stroke-width="2.2" stroke-dasharray="7 4" stroke-linejoin="round" stroke-linecap="round"/>
  <circle cx="78.0" cy="316.3" r="3.4" fill="#E69F00"/>
  <circle cx="200.8" cy="283.0" r="3.4" fill="#E69F00"/>
  <circle cx="324.2" cy="247.0" r="3.4" fill="#E69F00"/>
  <circle cx="448.0" cy="211.3" r="3.4" fill="#E69F00"/>
  <circle cx="571.9" cy="174.5" r="3.4" fill="#E69F00"/>
  <circle cx="696.0" cy="134.8" r="3.4" fill="#E69F00"/>
  <text x="690.0" y="123.8" font-size="11" fill="#E69F00" text-anchor="end" font-weight="600">기울기 1.10</text>
  <polyline points="78.0,315.4 200.8,279.1 324.2,241.9 448.0,193.1 571.9,151.1 696.0,107.3" fill="none" stroke="#009E73" stroke-width="2.2" stroke-dasharray="2 3" stroke-linejoin="round" stroke-linecap="round"/>
  <circle cx="78.0" cy="315.4" r="3.4" fill="#009E73"/>
  <circle cx="200.8" cy="279.1" r="3.4" fill="#009E73"/>
  <circle cx="324.2" cy="241.9" r="3.4" fill="#009E73"/>
  <circle cx="448.0" cy="193.1" r="3.4" fill="#009E73"/>
  <circle cx="571.9" cy="151.1" r="3.4" fill="#009E73"/>
  <circle cx="696.0" cy="107.3" r="3.4" fill="#009E73"/>
  <text x="690.0" y="96.3" font-size="11" fill="#009E73" text-anchor="end" font-weight="600">기울기 1.26</text>
  <line x1="78.0" y1="386.0" x2="100.0" y2="386.0" stroke="#0072B2" stroke-width="2.4" stroke-dasharray="none"/>
  <circle cx="89.0" cy="386.0" r="3" fill="#0072B2"/>
  <text x="106.0" y="390.0" font-size="11.5" fill="#24292f" text-anchor="start" font-weight="400">bfs</text>
  <line x1="143.8" y1="386.0" x2="165.8" y2="386.0" stroke="#E69F00" stroke-width="2.4" stroke-dasharray="7 4"/>
  <circle cx="154.8" cy="386.0" r="3" fill="#E69F00"/>
  <text x="171.8" y="390.0" font-size="11.5" fill="#24292f" text-anchor="start" font-weight="400">dijkstra</text>
  <line x1="242.6" y1="386.0" x2="264.6" y2="386.0" stroke="#009E73" stroke-width="2.4" stroke-dasharray="2 3"/>
  <circle cx="253.6" cy="386.0" r="3" fill="#009E73"/>
  <text x="270.6" y="390.0" font-size="11.5" fill="#24292f" text-anchor="start" font-weight="400">astar</text>
</svg>
